<svg width="90" height="90" viewBox="0 0 90 90" fill="none" xmlns="http://www.w3.org/2000/svg">
<path d="M45 0C53.1641 0 60.6934 2.01172 67.5879 6.03516C74.4824 10.0586 79.9414 15.5176 83.9648 22.4121C87.9883 29.3066 90 36.8359 90 45C90 53.1641 87.9883 60.6934 83.9648 67.5879C79.9414 74.4824 74.4824 79.9414 67.5879 83.9648C60.6934 87.9883 53.1641 90 45 90C36.8359 90 29.3066 87.9883 22.4121 83.9648C15.5176 79.9414 10.0586 74.4824 6.03515 67.5879C2.01172 60.6934 0 53.1641 0 45C0 36.8359 2.01172 29.3066 6.03515 22.4121C10.0586 15.5176 15.5176 10.0586 22.4121 6.03516C29.3066 2.01172 36.8359 0 45 0ZM67.5 48.2226C68.75 47.5195 69.375 46.4453 69.375 45C69.375 43.5547 68.75 42.4805 67.5 41.7773L35.625 23.0273C34.4141 22.2851 33.1641 22.2656 31.875 22.9687C30.625 23.7109 30 24.8047 30 26.25V63.75C30 65.1953 30.625 66.2891 31.875 67.0312C32.5 67.3437 33.125 67.5 33.75 67.5C34.4141 67.5 35.0391 67.3242 35.625 66.9726L67.5 48.2226Z" fill="white"/>
</svg>
