<svg width="34" height="34" viewBox="0 0 34 34" fill="none" xmlns="http://www.w3.org/2000/svg">
<path d="M15.5833 29.75C8.49992 29.75 2.83325 24.0833 2.83325 17C2.83325 13.6 4.10825 10.3417 6.51659 7.93333C8.92492 5.525 12.1833 4.25 15.5833 4.25C22.6666 4.25 28.3333 9.91667 28.3333 17C28.3333 17.85 27.7666 18.4167 26.9166 18.4167C26.0666 18.4167 25.4999 17.85 25.4999 17C25.4999 11.475 21.1083 7.08333 15.5833 7.08333C12.8916 7.08333 10.4833 8.075 8.49992 9.91667C6.65825 11.7583 5.66659 14.3083 5.66659 17C5.66659 22.525 10.0583 26.9167 15.5833 26.9167C18.2749 26.9167 20.6833 25.925 22.6666 24.0833C23.2333 23.5167 24.0833 23.5167 24.6499 24.0833C25.2166 24.65 25.2166 25.5 24.6499 26.0667C22.2416 28.475 18.9833 29.75 15.5833 29.75Z" fill="white"/>
<path d="M26.9166 18.4164C26.6333 18.4164 26.3499 18.2748 26.0666 18.1331L21.2499 14.5914C20.6833 14.1664 20.5416 13.1748 20.9666 12.6081C21.3916 12.0414 22.2416 11.8998 22.9499 12.3248L27.7666 15.8664C28.3333 16.2914 28.4749 17.2831 28.0499 17.8498C27.7666 18.2748 27.3416 18.4164 26.9166 18.4164Z" fill="white"/>
<path d="M26.9166 18.4165C26.6332 18.4165 26.3499 18.2748 26.0666 18.1332C25.4999 17.7082 25.3582 16.7165 25.7832 16.1498L29.3249 11.3332C29.7499 10.7665 30.7416 10.6248 31.3082 11.0498C31.8749 11.4748 32.0166 12.4665 31.5916 13.0332L28.0499 17.8498C27.7666 18.2748 27.3416 18.4165 26.9166 18.4165Z" fill="white"/>
</svg>
