<svg width="48" height="48" viewBox="0 0 48 48" fill="none" xmlns="http://www.w3.org/2000/svg">
<path d="M15.4001 33.7037H19.9881V38.2914C19.9881 38.9723 20.5402 39.5243 21.221 39.5243H26.7789C27.4597 39.5243 28.0118 38.9723 28.0118 38.2914V33.7037H32.5997C33.2806 33.7037 33.8327 33.1517 33.8327 32.4708V26.9123C33.8327 26.2313 33.2806 25.6793 32.5997 25.6793H28.0118V21.0918C28.0118 20.4108 27.4597 19.8588 26.7789 19.8588H21.221C20.5402 19.8588 19.9881 20.4108 19.9881 21.0918V25.6793H15.4001C14.7193 25.6793 14.1672 26.2313 14.1672 26.9123V32.4708C14.1672 33.1517 14.7193 33.7037 15.4001 33.7037ZM16.6331 28.1452H21.221C21.9018 28.1452 22.4539 27.5932 22.4539 26.9123V22.3247H25.5459V26.9123C25.5459 27.5932 26.098 28.1452 26.7789 28.1452H31.3668V31.2378H26.7789C26.098 31.2378 25.5459 31.7898 25.5459 32.4708V37.0584H22.4539V32.4708C22.4539 31.7898 21.9018 31.2378 21.221 31.2378H16.6331V28.1452ZM46.7671 12.5723H36.6164V2.42185C36.6164 1.74089 36.0643 1.1889 35.3835 1.1889H12.6165C11.9357 1.1889 11.3836 1.74089 11.3836 2.42185V12.5723H1.23295C0.552114 12.5723 0 13.1243 0 13.8053V45.578C0 46.2589 0.552114 46.8109 1.23295 46.8109H46.7671C47.4479 46.8109 48 46.2589 48 45.578V13.8053C48 13.1243 47.4479 12.5723 46.7671 12.5723ZM13.8495 3.6548H34.1504V5.69175H13.8495V3.6548ZM13.8495 8.15765H34.1504V12.5725H13.8495V8.15765ZM45.5341 44.345H2.46589V15.0382H45.5341V44.345Z" fill="#AAD6FF"/>
</svg>
