<svg width="48" height="48" viewBox="0 0 48 48" fill="none" xmlns="http://www.w3.org/2000/svg">
<g clip-path="url(#clip0)">
<path d="M26.8742 41.7502C25.8578 42.6737 24.7282 43.6608 24.0022 43.8827C23.1445 43.6255 21.7452 42.3263 19.6985 40.4259C19.3509 40.1032 18.9818 39.7606 18.589 39.3983C10.9835 32.384 2.82376 22.1203 2.73093 14.3493C2.69913 11.6908 3.58872 9.52296 5.45036 7.7218C7.87152 5.37953 11.0305 4.08957 14.3456 4.08957C17.6023 4.08957 20.6994 5.32056 23.0668 7.55581C23.5928 8.05241 24.4149 8.05241 24.941 7.55581C27.3088 5.32056 30.4064 4.08957 33.6631 4.08957C36.9781 4.08957 40.1371 5.37953 42.5583 7.72166C46.3909 11.4298 46.178 17.0331 41.9256 24.3761C41.5478 25.0284 41.7704 25.8635 42.4229 26.2414C43.0751 26.6194 43.9104 26.3967 44.2882 25.7442C50.4687 15.0717 47.7912 8.98568 44.4567 5.75956C41.5232 2.92219 37.6901 1.3595 33.6628 1.3595C30.123 1.3595 26.7377 2.55677 24.0038 4.7538C21.2703 2.55663 17.8853 1.3595 14.3455 1.3595C10.3184 1.3595 6.48519 2.92219 3.552 5.75969C1.15514 8.07875 -0.0395435 10.9796 0.000998117 14.3818C0.13095 25.2534 12.8445 37.8142 16.738 41.4052C17.1285 41.7654 17.4953 42.1058 17.8408 42.4265C20.6941 45.0759 22.1265 46.4056 23.8259 46.629C23.8849 46.6368 23.9444 46.6406 24.0038 46.6406C24.0632 46.6406 24.1225 46.6368 24.1815 46.629C25.5478 46.4497 26.7784 45.5257 28.7099 43.7709C29.2678 43.2639 29.3093 42.4007 28.8023 41.8427C28.2955 41.2848 27.4322 41.2434 26.8742 41.7502Z" fill="#AAD6FF"/>
<path d="M43.3445 28.4723H38.9604V24.0887C38.9604 23.3349 38.3493 22.7236 37.5954 22.7236H32.1059C31.352 22.7236 30.7408 23.3349 30.7408 24.0887V28.4723H26.3567C25.6028 28.4723 24.9917 29.0836 24.9917 29.8374V35.3274C24.9917 36.0812 25.6028 36.6925 26.3567 36.6925H30.7408V41.0761C30.7408 41.8299 31.352 42.4412 32.1059 42.4412H37.5954C38.3493 42.4412 38.9604 41.8299 38.9604 41.0761V36.6925H43.3445C44.0984 36.6925 44.7095 36.0812 44.7095 35.3274V29.8374C44.7095 29.0835 44.0984 28.4723 43.3445 28.4723ZM41.9795 33.9624H37.5954C36.8415 33.9624 36.2303 34.5737 36.2303 35.3274V39.7111H33.4709V35.3274C33.4709 34.5737 32.8598 33.9624 32.1059 33.9624H27.7218V31.2024H32.1059C32.8598 31.2024 33.4709 30.5912 33.4709 29.8374V25.4537H36.2303V29.8374C36.2303 30.5912 36.8415 31.2024 37.5954 31.2024H41.9795V33.9624Z" fill="#AAD6FF"/>
</g>
<defs>
<clipPath id="clip0">
<rect width="48" height="48" fill="white"/>
</clipPath>
</defs>
</svg>
