<svg width="48" height="48" viewBox="0 0 48 48" fill="none" xmlns="http://www.w3.org/2000/svg">
<path d="M18.8844 25.579C19.2483 25.579 19.5436 25.2837 19.5436 24.9198V17.8297C19.5436 17.4658 19.2483 17.1705 18.8844 17.1705H15.3101C14.946 17.1705 14.6509 17.4658 14.6509 17.8297V24.9198C14.6509 25.2837 14.946 25.579 15.3101 25.579H18.8844ZM15.9692 18.4888H18.2252V24.2606H15.9692V18.4888Z" fill="#AAD6FF"/>
<path d="M22.1074 25.579H25.6816C26.0453 25.579 26.3408 25.2837 26.3408 24.9198V17.8297C26.3408 17.4658 26.0453 17.1705 25.6816 17.1705H22.1074C21.743 17.1705 21.4482 17.4658 21.4482 17.8297V24.9198C21.4482 25.2837 21.743 25.579 22.1074 25.579ZM22.7666 18.4888H25.0224V24.2606H22.7666V18.4888Z" fill="#AAD6FF"/>
<path d="M9.7354 35.7869C10.0993 35.7869 10.3946 35.4923 10.3946 35.1278V28.0383C10.3946 27.6739 10.0993 27.3792 9.7354 27.3792H6.16089C5.79702 27.3792 5.50171 27.6739 5.50171 28.0383V35.1278C5.50171 35.4923 5.79702 35.7869 6.16089 35.7869H9.7354ZM6.82007 28.6975H9.07622V34.4686H6.82007V28.6975Z" fill="#AAD6FF"/>
<path d="M38.0527 35.7869H41.6271C41.9909 35.7869 42.2863 35.4923 42.2863 35.1278V28.0383C42.2863 27.6739 41.9909 27.3792 41.6271 27.3792H38.0527C37.6887 27.3792 37.3936 27.6739 37.3936 28.0383V35.1278C37.3936 35.4923 37.6887 35.7869 38.0527 35.7869ZM38.7119 28.6975H40.9679V34.4686H38.7119V28.6975Z" fill="#AAD6FF"/>
<path d="M28.9038 25.579H32.4784C32.8422 25.579 33.1376 25.2837 33.1376 24.9198V17.8297C33.1376 17.4658 32.8422 17.1705 32.4784 17.1705H28.9038C28.5399 17.1705 28.2446 17.4658 28.2446 17.8297V24.9198C28.2446 25.2837 28.5399 25.579 28.9038 25.579ZM29.563 18.4888H31.8192V24.2606H29.563V18.4888Z" fill="#AAD6FF"/>
<path d="M23.2349 8.43256C23.2349 8.7966 23.5302 9.09174 23.894 9.09174C24.2579 9.09174 24.5532 8.7966 24.5532 8.43256V7.07025H25.9155C26.2794 7.07025 26.5747 6.77511 26.5747 6.41107C26.5747 6.04703 26.2794 5.75189 25.9155 5.75189H24.5532V4.38959C24.5532 4.02554 24.2579 3.73041 23.894 3.73041C23.5302 3.73041 23.2349 4.02554 23.2349 4.38959V5.75189H21.8726C21.5087 5.75189 21.2134 6.04703 21.2134 6.41107C21.2134 6.77511 21.5087 7.07025 21.8726 7.07025H23.2349V8.43256Z" fill="#AAD6FF"/>
<path d="M45.7349 20.5827C46.0987 20.5827 46.394 20.2874 46.394 19.9236V17.5505C46.394 17.1866 46.0987 16.8913 45.7349 16.8913H41.7358C41.372 16.8913 41.0767 17.1866 41.0767 17.5505C41.0767 17.9144 41.372 18.2097 41.7358 18.2097H45.0757V19.2644C43.9605 19.2644 36.0309 19.2644 35.5563 19.2644V18.2097H38.4542C38.8188 18.2097 39.1134 17.9144 39.1134 17.5505C39.1134 17.1866 38.8188 16.8913 38.4542 16.8913H35.5563V13.8009H36.568C36.9323 13.8009 37.2272 13.5063 37.2272 13.1417V10.7687C37.2272 10.405 36.9323 10.1095 36.568 10.1095H30.688V2.05328C30.688 1.68942 30.393 1.3941 30.0288 1.3941H17.7593C17.3951 1.3941 17.1001 1.68942 17.1001 2.05328V10.1102H11.2199C10.8556 10.1102 10.5607 10.405 10.5607 10.7694V13.1417C10.5607 13.5063 10.8556 13.8009 11.2199 13.8009H12.2318V16.8913H2.05322C1.68936 16.8913 1.39404 17.1866 1.39404 17.5505V19.9236C1.39404 20.2874 1.68936 20.5827 2.05322 20.5827H2.34607V24.9198C2.34607 25.2837 2.64121 25.579 3.00525 25.579C3.3693 25.579 3.66443 25.2837 3.66443 24.9198V20.5827H12.2318V42.584H3.66443V28.1925C3.66443 27.8283 3.3693 27.5333 3.00525 27.5333C2.64121 27.5333 2.34607 27.8283 2.34607 28.1925V42.5835H2.05322C1.68936 42.5835 1.39404 42.8787 1.39404 43.2427V45.7349C1.39404 46.0988 1.68936 46.3941 2.05322 46.3941H45.7349C46.0987 46.3941 46.394 46.0988 46.394 45.7349V43.2427C46.394 42.8787 46.0987 42.5835 45.7349 42.5835H45.4422V20.5827H45.7349ZM11.879 11.4286H22.1236C22.4874 11.4286 22.7828 11.1333 22.7828 10.7694C22.7828 10.405 22.4874 10.1102 22.1236 10.1102H18.4185V2.71246H29.3696V10.1102H25.8568C25.4928 10.1102 25.1976 10.405 25.1976 10.7694C25.1976 11.1333 25.4928 11.4286 25.8568 11.4286H35.9089V12.4826H11.879V11.4286ZM2.7124 18.2097H12.2318V19.2644H2.7124V18.2097ZM13.5502 13.8009H34.2379V42.5835H30.4419V32.1558C30.4419 31.792 30.1466 31.4966 29.7827 31.4966H18.0054C17.6415 31.4966 17.3462 31.792 17.3462 32.1558V42.5835H13.5502V13.8009ZM18.6646 42.5835V32.815H23.2349V42.5835H18.6646ZM24.5532 32.815H29.1235V42.5835H24.5532V32.815ZM45.0757 45.0757H2.7124V43.9019H45.0757V45.0757ZM44.1238 42.5835H35.5563V20.5827H44.1231V42.5835H44.1238Z" fill="#AAD6FF"/>
</svg>
