<svg width="64" height="64" viewBox="0 0 64 64" fill="none" xmlns="http://www.w3.org/2000/svg">
<path d="M62.9325 50.6666H61.7475C64.6939 47.7993 64.758 43.0863 61.8907 40.14C61.4358 39.6725 60.9214 39.2669 60.3608 38.9335C62.6142 37.5879 63.9955 35.158 63.9992 32.5335C63.9939 28.4121 60.654 25.0723 56.5326 25.067H46.9327V17.6004C46.9325 17.0113 46.4548 16.5339 45.8657 16.5341C45.8116 16.5341 45.7574 16.5383 45.704 16.5465L33.0663 18.49V17.4937C35.5477 16.9835 37.3297 14.8006 37.3329 12.2671C37.3329 7.61225 32.9415 3.16644 32.7537 2.97978C32.3372 2.56338 31.662 2.56338 31.2455 2.97978C31.0577 3.16644 26.6663 7.61225 26.6663 12.2671C26.6695 14.8006 28.4515 16.9835 30.9329 17.4937V18.8196L17.971 20.8142C17.4511 20.8942 17.0671 21.341 17.0665 21.867V33.7506C16.2874 32.9103 15.3889 32.1893 14.3998 31.6109C14.0698 31.4204 13.6632 31.4204 13.3332 31.6109C10.1833 33.4411 8.05697 36.6252 7.57324 40.2358C6.83605 40.0846 6.08579 40.0057 5.33327 40.0001C4.86247 40.0022 4.39235 40.0328 3.92528 40.0918C3.54689 40.1374 3.22169 40.3814 3.07196 40.7318C0.898389 45.8304 2.59237 51.7545 7.13271 54.9333H0V57.0666H2.54077L4.37861 60.7433C4.55928 61.1049 4.92901 61.3333 5.33327 61.3332H45.8661C46.4552 61.3332 46.9327 60.8556 46.9327 60.2665V57.0666H53.7401L55.578 60.7433C55.7586 61.1049 56.1284 61.3333 56.5326 61.3332H60.7992C61.3883 61.3332 61.8659 60.8556 61.8659 60.2665V57.0666H62.9325C63.5216 57.0666 63.9992 56.589 63.9992 55.9999V51.7333C63.9992 51.1442 63.5216 50.6666 62.9325 50.6666ZM61.8659 45.3334C61.8624 48.2773 59.4766 50.6632 56.5326 50.6666H37.3329C34.3874 50.6666 31.9996 48.2788 31.9996 45.3334C31.9996 42.388 34.3874 40.0001 37.3329 40.0001H51.1994C52.9667 40.0001 54.3993 41.4328 54.3993 43.2001C54.3993 44.9674 52.9667 46.4 51.1994 46.4H40.5328C39.9438 46.4 39.4662 45.9224 39.4662 45.3334C39.4662 44.7443 39.9438 44.2667 40.5328 44.2667H47.9994V42.1334H40.5328C38.7655 42.1334 37.3329 43.5661 37.3329 45.3334C37.3329 47.1007 38.7655 48.5333 40.5328 48.5333H51.1994C54.1433 48.5299 56.5292 46.144 56.5326 43.2001C56.5288 42.0422 56.1441 40.9178 55.4382 40.0001H56.5326C59.4766 40.0036 61.8624 42.3894 61.8659 45.3334ZM53.3327 27.2003C55.1 27.2003 56.5326 28.6329 56.5326 30.4002C56.5326 32.1675 55.1 33.6002 53.3327 33.6002H42.6661C42.0771 33.6002 41.5995 33.1226 41.5995 32.5335C41.5995 31.9445 42.0771 31.4669 42.6661 31.4669H50.1327V29.3336H42.6661C40.8988 29.3336 39.4662 30.7662 39.4662 32.5335C39.4662 34.3008 40.8988 35.7335 42.6661 35.7335H53.3327C56.2766 35.73 58.6625 33.3442 58.6659 30.4002C58.6649 29.3 58.3203 28.2276 57.6803 27.3325C60.5528 27.9843 62.3532 30.8412 61.7015 33.7137C61.1531 36.1311 59.0114 37.8519 56.5326 37.8668H51.1994H41.5995C38.6541 37.8668 36.2662 35.479 36.2662 32.5335C36.2662 29.5881 38.6541 27.2003 41.5995 27.2003H53.3327ZM28.7996 12.2671C28.7996 9.53969 30.8529 6.70346 31.9996 5.33388C33.1473 6.7024 35.1996 9.53329 35.1996 12.2671C35.194 13.6183 34.3402 14.8204 33.0663 15.2708V13.3338H30.9329V15.2708C29.659 14.8204 28.8052 13.6183 28.7996 12.2671ZM13.8665 33.7901C16.2495 35.3939 17.7926 37.9777 18.0744 40.8364C16.4835 41.4717 15.0507 42.447 13.8761 43.6939C12.6929 42.4518 11.2533 41.4825 9.65748 40.8534C9.93441 37.9883 11.4784 35.3972 13.8665 33.7901ZM19.2171 42.6761C20.2397 42.3169 21.3157 42.1334 22.3997 42.1334C22.5672 42.1334 22.7421 42.1398 22.9245 42.1516C24.6818 47.1538 22.0513 52.6333 17.0491 54.3906C16.0265 54.7498 14.9503 54.9333 13.8665 54.9333C13.699 54.9333 13.5241 54.9269 13.3417 54.9151C11.5844 49.9129 14.2149 44.4334 19.2171 42.6761ZM4.26661 45.3334C4.26528 44.2497 4.44848 43.1737 4.80847 42.1516C4.99087 42.1398 5.1658 42.1334 5.33327 42.1334C8.09537 42.1252 10.7243 43.3193 12.5353 45.4048C10.7861 48.0933 10.2336 51.3881 11.01 54.5002C6.99818 53.2498 4.26581 49.5356 4.26661 45.3334ZM21.7405 59.1999H5.99246L4.92581 57.0666H22.8072L21.7405 59.1999ZM31.9996 59.1999H24.1256L25.1922 57.0666H27.733V54.9333H20.5917C25.1372 51.7589 26.8354 45.833 24.661 40.7329C24.5113 40.3825 24.1861 40.1385 23.8077 40.0929C22.594 39.9369 21.3628 39.9801 20.1629 40.2209C19.9966 39.0345 19.6487 37.8808 19.1315 36.8002H19.1998V22.7822L44.7994 18.8441V25.067H41.5995C37.4811 25.0615 34.1381 28.3957 34.1326 32.5141C34.13 34.5586 34.9668 36.5146 36.4475 37.9244C32.3587 38.4068 29.4352 42.1126 29.9176 46.2015C30.1178 47.898 30.8945 49.4744 32.118 50.6666H30.9329C30.3439 50.6666 29.8663 51.1442 29.8663 51.7333V55.9999C29.8663 56.589 30.3439 57.0666 30.9329 57.0666H31.9996V59.1999ZM36.6737 59.1999H34.1329V57.0666H37.7403L36.6737 59.1999ZM44.7994 59.1999H39.0587L40.1254 57.0666H44.7994V59.1999ZM59.7326 59.1999H57.1918L56.1252 57.0666H59.7326V59.1999ZM61.8659 54.9333H31.9996V52.7999H61.8659V54.9333Z" fill="white"/>
<path d="M23.4663 25.0669H21.333V33.6002H23.4663V25.0669Z" fill="white"/>
<path d="M23.4663 35.7334H21.333V37.8667H23.4663V35.7334Z" fill="white"/>
</svg>
