<svg width="94" height="98" viewBox="0 0 94 98" fill="none" xmlns="http://www.w3.org/2000/svg">
<path d="M91.913 96.8361C91.913 96.8361 92.1859 90.5503 91.9271 85.502C91.5496 78.1414 87.1207 75.8131 83.5889 74.5955C75.8436 71.9249 55.8981 71.0937 58.5135 58.0203C59.4673 53.2483 64.0943 40.6813 66.4662 35.1127C75.3593 14.2338 61.3189 -2.25667 40.3823 2.97907C32.7484 4.88843 27.9767 8.06936 25.1139 12.8421C22.2504 17.6148 22.2505 24.2956 22.2505 24.2956V28.7501L16.753 35.8993C15.7405 37.2149 16.3029 37.9073 17.8069 38.2589C19.2177 38.5878 20.8891 38.4464 22.2505 38.4544C22.2104 40.8454 18.51 43.5461 22.4099 44.0217C23.275 44.1271 19.0335 45.9991 22.4099 47.6009C24.0007 48.3561 22.4886 51.8159 22.4886 51.8159C22.4886 51.8159 20.1834 54.4411 22.2505 55.634C24.3182 56.8275 34.2586 56.3505 35.5313 55.3965C36.6692 54.5426 41.5336 68.3904 20.6738 74.817C12.0421 77.4776 6.06695 74.3387 3.27421 83.3791C2.11829 87.1251 1.9676 91.8746 2.00495 97.3131" fill="#68CAE2"/>
<path d="M91.913 96.8361C91.913 96.8361 92.1859 90.5503 91.9271 85.502C91.5496 78.1414 87.1207 75.8131 83.5889 74.5955C75.8436 71.9249 55.8981 71.0937 58.5135 58.0203C59.4673 53.2483 64.0943 40.6813 66.4662 35.1127C75.3593 14.2338 61.3189 -2.25667 40.3823 2.97907C32.7484 4.88843 27.9767 8.06936 25.1139 12.8421C22.2504 17.6148 22.2505 24.2956 22.2505 24.2956V28.7501L16.753 35.8993C15.7405 37.2149 16.3029 37.9073 17.8069 38.2589C19.2177 38.5878 20.8891 38.4464 22.2505 38.4544C22.2104 40.8454 18.51 43.5461 22.4099 44.0217C23.275 44.1271 19.0335 45.9991 22.4099 47.6009C24.0007 48.3561 22.4886 51.8159 22.4886 51.8159C22.4886 51.8159 20.1834 54.4411 22.2505 55.634C24.3182 56.8275 34.2586 56.3505 35.5313 55.3965C36.6692 54.5426 41.5336 68.3904 20.6738 74.817C12.0421 77.4776 6.06695 74.3387 3.27421 83.3791C2.11829 87.1251 1.9676 91.8746 2.00495 97.3131" stroke="#68CAE2" stroke-width="3" stroke-miterlimit="22.9256"/>
<path fill-rule="evenodd" clip-rule="evenodd" d="M46.8186 53.6111C49.2778 53.6111 51.2715 57.1724 51.2715 61.5655C51.2715 65.9587 49.2778 69.5192 46.8186 69.5192C44.3587 69.5192 42.3643 65.9587 42.3643 61.5655C42.3643 57.1724 44.3587 53.6111 46.8186 53.6111Z" fill="#68CAE2"/>
<path fill-rule="evenodd" clip-rule="evenodd" d="M43.6807 70.5901H49.6544V86.4975H43.6807V70.5901Z" fill="#68CAE2"/>
</svg>
