<svg width="32" height="32" viewBox="0 0 32 32" fill="none" xmlns="http://www.w3.org/2000/svg">
<path d="M15.9867 2.66666C8.62675 2.66666 2.66675 8.64 2.66675 16C2.66675 23.36 8.62675 29.3333 15.9867 29.3333C23.3601 29.3333 29.3334 23.36 29.3334 16C29.3334 8.64 23.3601 2.66666 15.9867 2.66666ZM16.0001 26.6667C10.1067 26.6667 5.33341 21.8933 5.33341 16C5.33341 10.1067 10.1067 5.33333 16.0001 5.33333C21.8934 5.33333 26.6667 10.1067 26.6667 16C26.6667 21.8933 21.8934 26.6667 16.0001 26.6667Z" fill="#00A1C9"/>
<path d="M16.6667 9.33334H14.6667V17.3333L21.6667 21.5333L22.6667 19.8933L16.6667 16.3333V9.33334Z" fill="#00A1C9"/>
</svg>
