<svg width="14" height="14" viewBox="0 0 14 14" fill="none" xmlns="http://www.w3.org/2000/svg">
<path d="M5.93945 8.06044C6.23232 8.35332 6.23232 8.82822 5.93945 9.12109C5.6465 9.41397 5.17165 9.41397 4.87875 9.12109C3.41429 7.65664 3.41429 5.28225 4.87875 3.81779L4.87877 3.81781L7.53035 1.16622C8.9948 -0.298248 11.3692 -0.29824 12.8337 1.16622C14.2981 2.63068 14.2981 5.00505 12.8337 6.46954L11.7195 7.58367C11.7257 6.96852 11.6245 6.35239 11.4158 5.76604L11.773 5.40878C12.6517 4.5301 12.6517 3.10548 11.773 2.22681C10.8943 1.34813 9.46977 1.34813 8.59107 2.22681L5.93945 4.87845C5.06074 5.75712 5.06074 7.18174 5.93945 8.06044ZM8.06075 4.87845C8.35362 4.58556 8.82852 4.58556 9.1214 4.87845C10.5858 6.34294 10.5858 8.71729 9.1214 10.1817L6.46977 12.8334C5.00529 14.2979 2.63093 14.2979 1.16646 12.8334C-0.297996 11.3689 -0.298004 8.99457 1.16646 7.53012L2.28068 6.41592C2.27444 7.03107 2.37567 7.64712 2.58435 8.23354L2.2271 8.59077C1.34843 9.46947 1.34843 10.8941 2.2271 11.7727C3.10578 12.6514 4.53041 12.6514 5.40908 11.7727L8.06075 9.12109C8.93945 8.24239 8.93945 6.81777 8.06075 5.93914C7.76787 5.64619 7.76787 5.17134 8.06075 4.87845Z" fill="#0F8CFF"/>
</svg>
