<svg width="29" height="31" viewBox="0 0 29 31" fill="none" xmlns="http://www.w3.org/2000/svg">
<path d="M14.5 30.5278C22.5081 30.5278 29 23.6939 29 15.2639C29 6.83389 22.5081 0 14.5 0C6.49187 0 0 6.83389 0 15.2639C0 23.6939 6.49187 30.5278 14.5 30.5278Z" fill="#FFDF8F"/>
<path d="M14.4998 17.8079C11.5812 17.8079 9.64469 17.4501 7.24978 16.9599C6.70281 16.8489 5.63867 16.9599 5.63867 18.6559C5.63867 22.0479 9.34019 26.2879 14.4998 26.2879C19.6585 26.2879 23.3608 22.0479 23.3608 18.6559C23.3608 16.9599 22.2967 16.848 21.7497 16.9599C19.3548 17.4501 17.4183 17.8079 14.4998 17.8079Z" fill="#664500"/>
<path d="M7.25 18.6559C7.25 18.6559 9.66667 19.5039 14.5 19.5039C19.3333 19.5039 21.75 18.6559 21.75 18.6559C21.75 18.6559 20.1389 22.0479 14.5 22.0479C8.86111 22.0479 7.25 18.6559 7.25 18.6559Z" fill="white"/>
<path d="M9.66675 14.4159C10.779 14.4159 11.6807 13.0871 11.6807 11.4479C11.6807 9.80875 10.779 8.47993 9.66675 8.47993C8.55449 8.47993 7.65283 9.80875 7.65283 11.4479C7.65283 13.0871 8.55449 14.4159 9.66675 14.4159Z" fill="#664500"/>
<path d="M19.3333 14.4159C20.4455 14.4159 21.3472 13.0871 21.3472 11.4479C21.3472 9.80875 20.4455 8.47993 19.3333 8.47993C18.221 8.47993 17.3193 9.80875 17.3193 11.4479C17.3193 13.0871 18.221 14.4159 19.3333 14.4159Z" fill="#664500"/>
</svg>
