<?xml version="1.0" encoding="UTF-8"?><!DOCTYPE svg PUBLIC "-//W3C//DTD SVG 1.1//EN" "http://www.w3.org/Graphics/SVG/1.1/DTD/svg11.dtd"><svg xmlns="http://www.w3.org/2000/svg" xmlns:xlink="http://www.w3.org/1999/xlink"><defs>
        <clipPath id="a">
            <path transform="rotate(-44.397 28.077 10.923)" d="M0 0h32v32H0z"/>
        </clipPath>
    </defs><symbol id="icon-arrow-left" viewBox="0 0 16 28">
    <path d="M4.823 13.99l10.59-10.581a1.991 1.991 0 0 0 0-2.825 2.009 2.009 0 0 0-2.833 0L.583 12.574a1.996 1.996 0 0 0-.059 2.757l12.048 12.072a2 2 0 0 0 1.416.584 2 2 0 0 0 1.416-.584 1.991 1.991 0 0 0 0-2.824l-10.58-10.59z"/>
</symbol><symbol id="icon-arrow-right" viewBox="0 0 16 28">
    <path d="M11.177 13.99L.587 3.409a1.991 1.991 0 0 1 0-2.825 2.009 2.009 0 0 1 2.833 0l11.998 11.99c.758.758.774 1.974.058 2.757L3.428 27.403a2 2 0 0 1-1.416.584 2 2 0 0 1-1.416-.584 1.991 1.991 0 0 1 0-2.824l10.58-10.59z"/>
</symbol><symbol id="icon-facebook" viewBox="0 0 10 19">
    <title>
        facebook
    </title>
    <path d="M9.766.157v2.946H8.014c-.64 0-1.071.134-1.295.402-.223.268-.335.67-.335 1.205v2.11h3.27l-.435 3.303H6.384v8.471H2.97v-8.47H.123V6.82H2.97V4.387c0-1.384.387-2.457 1.161-3.22C4.904.404 5.934.023 7.222.023c1.093 0 1.941.045 2.544.134z" fill-rule="evenodd"/>
</symbol><symbol id="icon-play" viewBox="0 0 90 90">
    <path d="M45 0c8.164 0 15.693 2.012 22.588 6.035 6.894 4.024 12.353 9.483 16.377 16.377C87.988 29.307 90 36.836 90 45c0 8.164-2.012 15.693-6.035 22.588-4.024 6.894-9.483 12.353-16.377 16.377C60.693 87.988 53.164 90 45 90c-8.164 0-15.693-2.012-22.588-6.035-6.894-4.024-12.353-9.483-16.377-16.377C2.012 60.693 0 53.164 0 45c0-8.164 2.012-15.693 6.035-22.588 4.024-6.894 9.483-12.353 16.377-16.377C29.307 2.012 36.836 0 45 0zm22.5 48.223c1.25-.703 1.875-1.778 1.875-3.223 0-1.445-.625-2.52-1.875-3.223l-31.875-18.75c-1.21-.742-2.46-.761-3.75-.058C30.625 23.71 30 24.805 30 26.25v37.5c0 1.445.625 2.54 1.875 3.281.625.313 1.25.469 1.875.469.664 0 1.29-.176 1.875-.527L67.5 48.223z"/>
</symbol><symbol id="icon-plus-close" viewBox="0 0 46 46">
    <g clip-path="url(#a)">
        <path d="M32.328 32.527c5.262-5.152 5.35-13.594.199-18.855-5.152-5.262-13.594-5.35-18.855-.199-5.262 5.152-5.35 13.594-.199 18.855 5.152 5.262 13.594 5.35 18.855.199z"/>
        <path d="M19.269 19.19l7.462 7.62"/>
        <path d="M19.19 26.731l7.62-7.462"/>
    </g>
    
</symbol><symbol id="icon-plus-open" viewBox="0 0 32 32">
    <path d="M16 29.333c7.364 0 13.333-5.97 13.333-13.333 0-7.364-5.97-13.334-13.333-13.334C8.636 2.666 2.667 8.636 2.667 16S8.637 29.333 16 29.333z"/>
    <path d="M16 10.666v10.667"/>
    <path d="M10.667 16h10.666"/>
</symbol><symbol id="icon-services-icon-1" viewBox="0 0 64 64">
    <path d="M62.932 50.667h-1.184a7.444 7.444 0 0 0-1.387-11.733 7.466 7.466 0 0 0 3.638-6.4 7.476 7.476 0 0 0-7.466-7.467h-9.6V17.6a1.067 1.067 0 0 0-1.229-1.053L33.066 18.49v-.996a5.343 5.343 0 0 0 4.267-5.227c0-4.655-4.392-9.1-4.58-9.287a1.067 1.067 0 0 0-1.508 0c-.187.186-4.579 4.632-4.579 9.287a5.343 5.343 0 0 0 4.267 5.227v1.326L17.97 20.814c-.52.08-.904.527-.904 1.053v11.884a11.67 11.67 0 0 0-2.667-2.14c-.33-.19-.737-.19-1.067 0a11.785 11.785 0 0 0-5.76 8.625A11.578 11.578 0 0 0 5.333 40c-.47.002-.94.033-1.408.092-.378.045-.703.29-.853.64a11.724 11.724 0 0 0 4.06 14.201H0v2.134h2.54l1.839 3.676c.18.362.55.59.954.59h40.533c.59 0 1.067-.477 1.067-1.066v-3.2h6.807l1.838 3.676c.18.362.55.59.955.59h4.266c.59 0 1.067-.477 1.067-1.066v-3.2h1.066c.59 0 1.067-.478 1.067-1.067v-4.267c0-.589-.477-1.066-1.067-1.066zm-1.066-5.334a5.34 5.34 0 0 1-5.333 5.334h-19.2a5.333 5.333 0 1 1 0-10.667h13.866a3.2 3.2 0 0 1 0 6.4H40.533a1.067 1.067 0 0 1 0-2.133h7.466v-2.134h-7.466a3.2 3.2 0 0 0 0 6.4h10.666a5.34 5.34 0 0 0 5.334-5.333 5.277 5.277 0 0 0-1.095-3.2h1.095a5.34 5.34 0 0 1 5.333 5.333zM53.333 27.2a3.2 3.2 0 1 1 0 6.4H42.666a1.067 1.067 0 0 1 0-2.133h7.467v-2.133h-7.467a3.2 3.2 0 1 0 0 6.4h10.667a5.34 5.34 0 0 0 5.333-5.334 5.283 5.283 0 0 0-.986-3.067 5.333 5.333 0 0 1-1.147 10.534H41.599a5.333 5.333 0 0 1 0-10.667h11.734zM28.8 12.267c0-2.727 2.053-5.564 3.2-6.933 1.147 1.368 3.2 4.2 3.2 6.933a3.2 3.2 0 0 1-2.134 3.004v-1.937h-2.133v1.937a3.2 3.2 0 0 1-2.133-3.004zM13.866 33.79a9.633 9.633 0 0 1 4.208 7.046 11.759 11.759 0 0 0-4.198 2.858 11.806 11.806 0 0 0-4.219-2.84 9.63 9.63 0 0 1 4.21-7.064zm5.351 8.886a9.603 9.603 0 0 1 3.183-.543c.167 0 .342.007.524.019a9.6 9.6 0 0 1-9.057 12.781 8.15 8.15 0 0 1-.525-.018 9.6 9.6 0 0 1 5.875-12.239zm-14.95 2.657a9.543 9.543 0 0 1 .541-3.181 9.501 9.501 0 0 1 7.727 3.253A11.551 11.551 0 0 0 11.01 54.5a9.6 9.6 0 0 1-6.743-9.167zM21.74 59.2H5.992l-1.066-2.133h17.881L21.741 59.2zM32 59.2h-7.874l1.066-2.133h2.541v-2.134h-7.141a11.716 11.716 0 0 0 4.069-14.2 1.067 1.067 0 0 0-.853-.64 11.241 11.241 0 0 0-3.645.128 11.678 11.678 0 0 0-1.032-3.42h.069V22.781l25.6-3.938v6.223h-3.2a7.457 7.457 0 0 0-5.153 12.857 7.455 7.455 0 0 0-4.329 12.743h-1.185c-.59 0-1.067.477-1.067 1.066V56c0 .589.478 1.067 1.067 1.067H32V59.2zm4.674 0h-2.541v-2.133h3.607L36.674 59.2zm8.125 0h-5.74l1.066-2.133H44.8V59.2zm14.934 0h-2.541l-1.067-2.133h3.608V59.2zm2.133-4.267H32V52.8h29.866v2.133z"/>
    <path d="M23.466 25.067h-2.133V33.6h2.133v-8.533z"/>
    <path d="M23.466 35.733h-2.133v2.134h2.133v-2.134z"/>
</symbol></svg>